<mxfile host="app.diagrams.net" modified="2023-09-05T08:44:18.066Z" agent="Mozilla/5.0 (Windows NT 10.0; Win64; x64) AppleWebKit/537.36 (KHTML, like Gecko) Chrome/116.0.0.0 Safari/537.36" etag="GBtPbwJjIshVmCyNcaWc" version="21.7.2" type="github" pages="2">
  <diagram id="KtHXuoV6Bw1JJSfrgYwb" name="Page-1">
    <mxGraphModel dx="844" dy="730" grid="1" gridSize="10" guides="1" tooltips="1" connect="1" arrows="1" fold="1" page="1" pageScale="1" pageWidth="827" pageHeight="1169" math="0" shadow="0">
      <root>
        <mxCell id="0" />
        <mxCell id="1" parent="0" />
        <mxCell id="2" value="管理域" style="rounded=0;whiteSpace=wrap;html=1;verticalAlign=top;" parent="1" vertex="1">
          <mxGeometry x="20" y="110" width="220" height="270" as="geometry" />
        </mxCell>
        <mxCell id="dD19m2t1y5qLJ8OFjTBO-3" value="战略" style="rounded=0;whiteSpace=wrap;html=1;" vertex="1" parent="1">
          <mxGeometry x="20" y="140" width="80" height="30" as="geometry" />
        </mxCell>
        <mxCell id="dD19m2t1y5qLJ8OFjTBO-4" value="组织" style="rounded=0;whiteSpace=wrap;html=1;" vertex="1" parent="1">
          <mxGeometry x="20" y="203" width="80" height="30" as="geometry" />
        </mxCell>
        <mxCell id="dD19m2t1y5qLJ8OFjTBO-5" value="规范" style="rounded=0;whiteSpace=wrap;html=1;" vertex="1" parent="1">
          <mxGeometry x="20" y="330" width="80" height="30" as="geometry" />
        </mxCell>
        <mxCell id="dD19m2t1y5qLJ8OFjTBO-6" value="制度" style="rounded=0;whiteSpace=wrap;html=1;" vertex="1" parent="1">
          <mxGeometry x="20" y="267" width="80" height="30" as="geometry" />
        </mxCell>
        <mxCell id="dD19m2t1y5qLJ8OFjTBO-7" value="价值" style="rounded=0;whiteSpace=wrap;html=1;verticalAlign=top;" vertex="1" parent="1">
          <mxGeometry x="590" y="110" width="220" height="270" as="geometry" />
        </mxCell>
        <mxCell id="dD19m2t1y5qLJ8OFjTBO-8" value="数据流通" style="rounded=0;whiteSpace=wrap;html=1;" vertex="1" parent="1">
          <mxGeometry x="590" y="140" width="80" height="30" as="geometry" />
        </mxCell>
        <mxCell id="dD19m2t1y5qLJ8OFjTBO-9" value="数据服务" style="rounded=0;whiteSpace=wrap;html=1;" vertex="1" parent="1">
          <mxGeometry x="590" y="230" width="80" height="30" as="geometry" />
        </mxCell>
        <mxCell id="dD19m2t1y5qLJ8OFjTBO-11" value="数据洞察" style="rounded=0;whiteSpace=wrap;html=1;" vertex="1" parent="1">
          <mxGeometry x="590" y="330" width="80" height="30" as="geometry" />
        </mxCell>
      </root>
    </mxGraphModel>
  </diagram>
  <diagram id="yvZzvP_Wpn0xiaJl_xTm" name="治理体系">
    <mxGraphModel dx="1206" dy="1043" grid="1" gridSize="10" guides="1" tooltips="1" connect="1" arrows="1" fold="1" page="1" pageScale="1" pageWidth="827" pageHeight="1169" math="0" shadow="0">
      <root>
        <mxCell id="0" />
        <mxCell id="1" parent="0" />
        <mxCell id="MUx5_1Kw8TouXXVVEqfP-1" value="技术域" style="rounded=0;whiteSpace=wrap;html=1;align=left;verticalAlign=top;" vertex="1" parent="1">
          <mxGeometry x="40" y="400" width="720" height="180" as="geometry" />
        </mxCell>
        <mxCell id="MUx5_1Kw8TouXXVVEqfP-3" value="管理域" style="rounded=0;whiteSpace=wrap;html=1;align=left;verticalAlign=top;" vertex="1" parent="1">
          <mxGeometry x="40" y="600" width="1000" height="60" as="geometry" />
        </mxCell>
        <mxCell id="MUx5_1Kw8TouXXVVEqfP-5" value="战略" style="rounded=0;whiteSpace=wrap;html=1;align=center;" vertex="1" parent="1">
          <mxGeometry x="90" y="605" width="100" height="50" as="geometry" />
        </mxCell>
        <mxCell id="MUx5_1Kw8TouXXVVEqfP-6" value="组织" style="rounded=0;whiteSpace=wrap;html=1;align=center;" vertex="1" parent="1">
          <mxGeometry x="277" y="605" width="100" height="50" as="geometry" />
        </mxCell>
        <mxCell id="MUx5_1Kw8TouXXVVEqfP-7" value="制度" style="rounded=0;whiteSpace=wrap;html=1;align=center;" vertex="1" parent="1">
          <mxGeometry x="463" y="605" width="100" height="50" as="geometry" />
        </mxCell>
        <mxCell id="MUx5_1Kw8TouXXVVEqfP-8" value="规范" style="rounded=0;whiteSpace=wrap;html=1;align=center;" vertex="1" parent="1">
          <mxGeometry x="650" y="605" width="100" height="50" as="geometry" />
        </mxCell>
        <mxCell id="MUx5_1Kw8TouXXVVEqfP-9" value="治理域" style="rounded=0;whiteSpace=wrap;html=1;align=left;verticalAlign=top;" vertex="1" parent="1">
          <mxGeometry x="40" y="210" width="720" height="180" as="geometry" />
        </mxCell>
        <mxCell id="MUx5_1Kw8TouXXVVEqfP-10" value="过程域" style="rounded=0;whiteSpace=wrap;html=1;align=left;verticalAlign=top;" vertex="1" parent="1">
          <mxGeometry x="40" y="20" width="720" height="180" as="geometry" />
        </mxCell>
        <mxCell id="MUx5_1Kw8TouXXVVEqfP-11" value="价值域" style="rounded=0;whiteSpace=wrap;html=1;align=left;verticalAlign=top;" vertex="1" parent="1">
          <mxGeometry x="780" y="20" width="260" height="560" as="geometry" />
        </mxCell>
        <mxCell id="MUx5_1Kw8TouXXVVEqfP-13" value="数据流通" style="rounded=0;whiteSpace=wrap;html=1;align=center;" vertex="1" parent="1">
          <mxGeometry x="800" y="60" width="100" height="50" as="geometry" />
        </mxCell>
        <mxCell id="MUx5_1Kw8TouXXVVEqfP-14" value="数据服务" style="rounded=0;whiteSpace=wrap;html=1;align=center;" vertex="1" parent="1">
          <mxGeometry x="800" y="200" width="100" height="50" as="geometry" />
        </mxCell>
        <mxCell id="MUx5_1Kw8TouXXVVEqfP-15" value="数据洞察" style="rounded=0;whiteSpace=wrap;html=1;align=center;" vertex="1" parent="1">
          <mxGeometry x="800" y="370" width="100" height="50" as="geometry" />
        </mxCell>
        <mxCell id="MUx5_1Kw8TouXXVVEqfP-16" value="主数据治理" style="rounded=0;whiteSpace=wrap;html=1;align=center;" vertex="1" parent="1">
          <mxGeometry x="80" y="275" width="100" height="50" as="geometry" />
        </mxCell>
        <mxCell id="MUx5_1Kw8TouXXVVEqfP-17" value="分析" style="rounded=0;whiteSpace=wrap;html=1;align=center;" vertex="1" parent="1">
          <mxGeometry x="80" y="85" width="100" height="50" as="geometry" />
        </mxCell>
        <mxCell id="MUx5_1Kw8TouXXVVEqfP-18" value="设计" style="rounded=0;whiteSpace=wrap;html=1;align=center;" vertex="1" parent="1">
          <mxGeometry x="240" y="85" width="100" height="50" as="geometry" />
        </mxCell>
        <mxCell id="MUx5_1Kw8TouXXVVEqfP-19" value="执行" style="rounded=0;whiteSpace=wrap;html=1;align=center;" vertex="1" parent="1">
          <mxGeometry x="400" y="85" width="100" height="50" as="geometry" />
        </mxCell>
        <mxCell id="MUx5_1Kw8TouXXVVEqfP-20" value="评估" style="rounded=0;whiteSpace=wrap;html=1;align=center;" vertex="1" parent="1">
          <mxGeometry x="590" y="85" width="100" height="50" as="geometry" />
        </mxCell>
        <mxCell id="MUx5_1Kw8TouXXVVEqfP-21" value="主数据治理" style="rounded=0;whiteSpace=wrap;html=1;align=center;" vertex="1" parent="1">
          <mxGeometry x="80" y="465" width="100" height="50" as="geometry" />
        </mxCell>
        <mxCell id="MUx5_1Kw8TouXXVVEqfP-22" value="治理工具" style="rounded=0;whiteSpace=wrap;html=1;align=center;" vertex="1" parent="1">
          <mxGeometry x="400" y="470" width="100" height="50" as="geometry" />
        </mxCell>
        <mxCell id="MUx5_1Kw8TouXXVVEqfP-23" value="管控平台" style="rounded=0;whiteSpace=wrap;html=1;align=center;" vertex="1" parent="1">
          <mxGeometry x="240" y="465" width="100" height="50" as="geometry" />
        </mxCell>
        <mxCell id="MUx5_1Kw8TouXXVVEqfP-24" value="主数据治理" style="rounded=0;whiteSpace=wrap;html=1;align=center;" vertex="1" parent="1">
          <mxGeometry x="240" y="275" width="100" height="50" as="geometry" />
        </mxCell>
        <mxCell id="MUx5_1Kw8TouXXVVEqfP-25" value="主数据治理" style="rounded=0;whiteSpace=wrap;html=1;align=center;" vertex="1" parent="1">
          <mxGeometry x="400" y="275" width="100" height="50" as="geometry" />
        </mxCell>
      </root>
    </mxGraphModel>
  </diagram>
</mxfile>
